:SAMPLES-PER-SECOND 30
:FULLY-SPECIFIED
:DEGREES
18
root  7.06431 40.3159 -0.0383493 179.816 -77.1372 174.375
RightUpLeg  -2.0019 -3.77049 -3.54633
RightLeg  22.1613 2.81086 1.04294
RightFoot  -9.53386 -0.0969628 1.92083
RightToes  0.00048216 0.542163 -0.142577
Spine  4.27327 1.41965 0.434543
Spine1  7.50275 2.14535 -3.30489
HEad  7.56415 -1.7913 -0.208837
LeftShoulder1  1.33683 -1.57701 -19.6624
LeftArm  -39.1647 16.8273 -12.8372
LeftForeArm  12.8975 -18.043 -1.02984
LeftHand  -0.25398 0.0180481 5.50724
RightShoulder  2.06921 4.68978 18.7709
RightArm  -16.3014 -13.5465 15.0943
RightForeArm  4.78668 35.6305 7.76388
RightHand  -1.8092 4.83083 -20.6988
LeftUpLeg  7.97042 5.81484 -0.495715
LeftLeg  7.39506 18.1853 -3.49744
LeftFoot  -11.8965 0.0710417 -0.167683
LeftToes  1.06248e-005 4.65855e-005 -8.185e-006
19
root  7.01856 40.1769 -0.0237139 179.748 -75.5863 173.617
RightUpLeg  -5.18529 -3.11145 -4.12661
RightLeg  28.927 3.05213 1.59998
RightFoot  -7.6495 -0.222236 5.10999
RightToes  0.00048216 0.542163 -0.142577
Spine  5.32264 1.39708 0.419232
Spine1  8.4178 2.21871 -3.88076
HEad  7.99008 -1.33258 -0.423243
LeftShoulder1  1.96074 -2.86849 -24.4142
LeftArm  -36.4049 15.3108 -14.1278
LeftForeArm  6.74975 -15.2912 0.295683
LeftHand  -0.25398 0.0180481 5.50724
RightShoulder  2.50191 5.2647 22.2797
RightArm  -14.1398 -14.1642 17.482
RightForeArm  9.91976 37.016 7.85738
RightHand  -1.65119 4.26404 -19.996
LeftUpLeg  8.33928 6.23884 -0.723105
LeftLeg  8.91989 19.299 -3.03152
LeftFoot  -13.0295 0.070922 -0.481467
LeftToes  1.06248e-005 4.65855e-005 -8.185e-006
20
root  6.91587 40.0324 -0.0354317 179.988 -74.4821 172.575
RightUpLeg  -8.4664 -3.3881 -4.87674
RightLeg  35.4373 2.92395 1.97355
RightFoot  -5.00572 -0.507267 8.5469
RightToes  0.00048216 0.542163 -0.142577
Spine  6.108 1.20594 -0.00859648
Spine1  9.49317 2.00143 -4.10808
HEad  8.32364 -0.85217 -0.735571
LeftShoulder1  2.85991 -4.68551 -28.7571
LeftArm  -29.9746 13.0178 -15.8078
LeftForeArm  -2.51908 -9.6104 1.2206
LeftHand  -0.25398 0.0180481 5.50724
RightShoulder  2.89575 5.75712 25.1532
RightArm  -11.203 -14.4726 20.6027
RightForeArm  13.4101 35.6939 7.2733
RightHand  -1.41064 3.44166 -18.7005
LeftUpLeg  8.78772 6.56343 -1.02733
LeftLeg  10.3267 19.999 -2.5229
LeftFoot  -14.144 0.0597882 -1.01591
LeftToes  1.06248e-005 4.65855e-005 -8.185e-006
21
root  6.74173 39.9147 -0.0834777 -179.804 -73.8368 171.732
RightUpLeg  -11.3533 -4.32109 -5.471
RightLeg  40.0064 2.0599 1.57475
RightFoot  -2.89869 -0.772008 10.2165
RightToes  0.00048216 0.542163 -0.142577
Spine  6.48942 0.796727 -0.870646
Spine1  10.6581 1.38134 -3.70856
HEad  8.75573 -0.101988 -1.20141
LeftShoulder1  4.03932 -6.90041 -32.7348
LeftArm  -25.0279 10.8654 -17.6733
LeftForeArm  -7.7302 -3.68775 0.0837709
LeftHand  -0.25398 0.0180481 5.50724
RightShoulder  3.29596 6.41646 27.1908
RightArm  -7.65251 -14.7852 24.5591
RightForeArm  14.2404 31.8405 6.19406
RightHand  -1.24842 3.06691 -17.316
LeftUpLeg  9.35831 6.87575 -1.18543
LeftLeg  11.3365 20.1858 -2.20409
LeftFoot  -15.0552 0.041139 -1.52485
LeftToes  1.06248e-005 4.65855e-005 -8.185e-006
22
root  6.4928 39.8618 -0.153457 179.928 -73.553 171.738
RightUpLeg  -13.6904 -5.8924 -5.69262
RightLeg  41.3802 0.817048 0.497536
RightFoot  -2.02101 -0.802063 9.64773
RightToes  0.00048216 0.542163 -0.142577
Spine  6.53614 0.161007 -1.77254
Spine1  11.6982 0.417309 -2.79071
HEad  9.33355 0.959805 -1.7271
LeftShoulder1  5.38976 -9.12897 -36.546
LeftArm  -20.664 9.16699 -19.8489
LeftForeArm  -6.75478 -0.575152 -1.49349
LeftHand  -0.25398 0.0180481 5.50724
RightShoulder  3.64239 7.01236 28.6477
RightArm  -4.12569 -15.0334 29.1973
RightForeArm  13.2678 25.9368 4.92064
RightHand  -1.10796 2.87874 -15.7422
LeftUpLeg  9.97091 7.11846 -1.07878
LeftLeg  11.6679 20.1587 -2.11972
LeftFoot  -15.5555 0.0314015 -1.68486
LeftToes  1.06248e-005 4.65855e-005 -8.185e-006
23
root  6.17562 39.8452 -0.241627 179.238 -73.3506 172.452
RightUpLeg  -15.4195 -7.75769 -5.60123
RightLeg  39.3969 -0.401066 -0.617009
RightFoot  -1.92315 -0.709353 8.43518
RightToes  0.00048216 0.542163 -0.142577
Spine  6.68408 -0.58967 -2.60529
Spine1  12.3386 -0.73084 -1.64119
HEad  9.78186 2.27415 -2.25552
LeftShoulder1  6.63999 -10.8179 -40.1155
LeftArm  -17.4655 7.56038 -22.3346
LeftForeArm  2.24482 -0.940295 -2.86129
LeftHand  -0.25398 0.0180481 5.50724
RightShoulder  3.85912 7.26727 29.8652
RightArm  -3.75895 -15.1968 33.9957
RightForeArm  14.1669 18.6694 4.48519
RightHand  -0.912593 2.24726 -14.0509
LeftUpLeg  10.6031 7.16597 -0.831457
LeftLeg  11.5559 20.2399 -2.11908
LeftFoot  -15.8932 0.0196735 -1.89923
LeftToes  1.06248e-005 4.65855e-005 -8.185e-006
24
root  5.80112 39.808 -0.36712 178.589 -72.8932 173.143
RightUpLeg  -16.5768 -9.32966 -5.38346
RightLeg  34.91 -1.21422 -1.16261
RightFoot  -1.7936 -0.681853 8.00387
RightToes  0.00048216 0.542163 -0.142577
Spine  7.35081 -1.29221 -3.52621
Spine1  12.3682 -1.87462 -0.483893
HEad  9.83806 3.79024 -2.81745
LeftShoulder1  7.46848 -11.6298 -42.912
LeftArm  -14.1039 5.53603 -25.2254
LeftForeArm  14.9992 -3.54719 -4.31143
LeftHand  -0.25398 0.0180481 5.50724
RightShoulder  3.99512 7.32848 30.9303
RightArm  -9.8739 -15.8911 38.3346
RightForeArm  19.9951 11.3215 5.30873
RightHand  -0.708307 1.12452 -12.7553
LeftUpLeg  11.3472 7.1078 -0.629143
LeftLeg  11.4242 20.5248 -2.08598
LeftFoot  -16.4002 -0.0123008 -2.49974
LeftToes  1.06248e-005 4.65855e-005 -8.185e-006
